# xmcd
#
# Track frame offsets:
#	150
#	13907
#	27888
#	42180
#	56276
#	72423
#	86221
#	101728
#	118442
#	134417
#	149138
#	165384
#	190315
#	205134
#	226855
#	244715
#	259466
#	274654
#	289653
#	305458
#
# Disc length: 4300 seconds
#
# Revision: 0
# Processed by: cddbd v1.5.2PL0 Copyright (c) Steve Scherf et al.
# Submitted via: audiograbber 1.83.01
#
DISCID=3110ca14
DTITLE=Diverse Interpreten - Party bis der Arzt kommt CD2
DYEAR=2010
DGENRE=
TTITLE0=Tim Toupet - Hello Again
TTITLE1=Brittsche - 1,2,3 Oberkörper frei
TTITLE2=Peter Wackel and Schnitte - Schön ist es auf der Welt zu sein
TTITLE3=Tony Cajee's Country Five - Der Scheriff hat heute Geburtstag
TTITLE4=Sommer and Sommer - Wir sind alle über 40
TTITLE5=Heri ohne Schäferin - Das Schäferlied
TTITLE6=DJ Ralli - Kaufen Brille
TTITLE7=Wellkamm - Du hast die Haare schön
TTITLE8=Die Partygeier - Wahnsinn Hölle-Hölle-Hölle
TTITLE9=Roberto Falcone - Sag mir Quando, sag mir wann
TTITLE10=Mario Felsen - Ein Stern, der deinen Namen trägt
TTITLE11=Die Partygeier - Mit Alle auf Malle
TTITLE12=Pfleger Klaus - Die Krankenschwester (Ein schneeweißes Luder)
TTITLE13=Marc Hendric - SOS an Bord
TTITLE14=Peter Wackel - Ladidoo
TTITLE15=Die Partygeier - Eisgekühlter Bommerlunder
TTITLE16=Paul Polo - Hörst du die Regenwürmer husten
TTITLE17=Peter Wackel - Schwarze Natascha
TTITLE18=Gottlieb Wendehals - Mallorca La-La-La
TTITLE19=Winni C - Laterne
EXTD=
EXTT0=
EXTT1=
EXTT2=
EXTT3=
EXTT4=
EXTT5=
EXTT6=
EXTT7=
EXTT8=
EXTT9=
EXTT10=
EXTT11=
EXTT12=
EXTT13=
EXTT14=
EXTT15=
EXTT16=
EXTT17=
EXTT18=
EXTT19=
PLAYORDER=
